<svg xmlns="http://www.w3.org/2000/svg" viewBox="0 0 120 120" role="img" aria-label="Google Workspace"><rect width="120" height="120" rx="24" fill="#ffffff"/><path d="M60 24c19 0 29 11 34 20l-16 12c-3-7-9-12-18-12-11 0-20 8-20 16s9 16 20 16c8 0 14-3 17-8H60V52h38c1 5 1 10 0 14-4 21-19 30-38 30-24 0-44-16-44-36s20-36 44-36z" fill="#4285f4"/><path d="M24 43l16 12c4-7 11-11 20-11V24c-16 0-29 7-36 19z" fill="#ea4335"/><path d="M24 77l16-12c-1-2-1-3-1-5s0-4 1-5L24 43c-5 8-8 17-8 17s3 9 8 17z" fill="#fbbc05"/><path d="M60 96c17 0 31-7 38-22L80 64c-4 8-10 12-20 12-9 0-16-4-20-11L24 77c7 12 20 19 36 19z" fill="#34a853"/></svg>
