<svg xmlns="http://www.w3.org/2000/svg" viewBox="0 0 160 120" role="img" aria-label="Google Cloud"><rect width="160" height="120" rx="24" fill="#ffffff"/><path d="M61 82h57c14 0 25-10 25-23s-11-23-25-23h-2C110 22 96 14 80 14c-18 0-34 11-40 27-14 2-25 13-25 27 0 15 13 14 46 14z" fill="none" stroke="#4285f4" stroke-width="12" stroke-linecap="round"/><path d="M42 72c-7-3-12-10-12-18 0-10 8-18 19-18" fill="none" stroke="#34a853" stroke-width="12" stroke-linecap="round"/><path d="M49 36c5-13 17-22 31-22 13 0 25 7 31 18" fill="none" stroke="#fbbc05" stroke-width="12" stroke-linecap="round"/><path d="M112 37c17 0 31 13 31 29" fill="none" stroke="#ea4335" stroke-width="12" stroke-linecap="round"/></svg>
